<?xml version="1.0" encoding="UTF-8" standalone="no"?>
<!DOCTYPE svg PUBLIC "-//W3C//DTD SVG 1.1//EN" "http://www.w3.org/Graphics/SVG/1.1/DTD/svg11.dtd">
<svg xmlns="http://www.w3.org/2000/svg" version="1.1" viewBox="0.00 0.00 500.00 500.00">
<g stroke-width="2.00" fill="none" stroke-linecap="butt">
<path stroke="#7c7c7c" vector-effect="non-scaling-stroke" d="
  M 214.00 234.01
  C 213.60 281.91 233.23 331.24 283.16 345.51
  Q 297.40 349.58 311.59 349.66
  Q 328.45 349.76 340.73 346.70
  Q 379.00 337.18 397.69 302.77
  A 0.41 0.40 31.8 0 0 397.56 302.24
  L 389.74 296.83
  Q 389.25 296.49 388.93 297.00
  C 386.78 300.43 384.88 303.94 382.43 307.30
  C 371.93 321.76 356.94 332.52 339.39 336.56
  Q 314.95 342.19 290.12 336.85
  C 285.17 335.79 280.38 333.84 275.70 332.08
  Q 269.41 329.72 261.28 323.71
  C 233.21 302.97 224.74 267.53 224.65 233.87
  Q 224.65 233.36 225.16 233.30
  Q 227.59 233.03 230.03 233.36
  Q 231.50 233.56 231.50 232.08
  L 231.50 225.66
  Q 231.50 224.19 230.04 224.40
  Q 227.53 224.77 225.35 224.48
  Q 224.85 224.42 224.87 223.92
  C 226.14 191.94 237.65 158.63 262.53 137.45
  Q 284.01 119.15 312.14 117.10
  C 322.17 116.36 333.56 117.20 343.21 119.49
  C 363.64 124.36 378.66 137.74 389.42 155.94
  Q 389.79 156.57 390.34 156.10
  L 397.75 149.95
  Q 398.19 149.58 397.91 149.08
  Q 389.84 134.47 377.14 124.61
  Q 367.44 117.08 356.09 112.86
  Q 339.26 106.61 320.02 106.59
  Q 278.43 106.55 249.33 135.08
  C 225.81 158.12 215.44 191.22 214.11 223.89
  Q 214.08 224.50 213.48 224.50
  L 156.68 224.50
  Q 156.34 224.50 156.34 224.16
  L 156.34 117.71
  Q 156.34 117.50 156.54 117.50
  L 197.76 117.50
  A 0.26 0.25 -90.0 0 0 198.01 117.24
  L 198.01 109.01
  A 0.26 0.25 90.0 0 0 197.76 108.75
  L 146.51 108.75
  A 0.24 0.24 0.0 0 0 146.27 108.99
  L 146.27 345.89
  Q 146.27 346.50 146.89 346.50
  L 155.80 346.50
  Q 156.34 346.50 156.34 345.95
  L 156.34 233.60
  A 0.35 0.34 -90.0 0 1 156.68 233.25
  L 213.25 233.25
  Q 214.00 233.25 214.00 234.01"
/>
<path stroke="#7c7c7c" vector-effect="non-scaling-stroke" d="
  M 264.47 109.01
  A 0.26 0.26 0.0 0 0 264.21 108.75
  L 229.99 108.75
  A 0.26 0.26 0.0 0 0 229.73 109.01
  L 229.73 117.25
  A 0.26 0.26 0.0 0 0 229.99 117.51
  L 264.21 117.51
  A 0.26 0.26 0.0 0 0 264.47 117.25
  L 264.47 109.01"
/>
</g>
<path fill="#000000" d="
  M 0.00 0.00
  L 500.00 0.00
  L 500.00 500.00
  L 0.00 500.00
  L 0.00 0.00
  Z
  M 214.00 234.01
  C 213.60 281.91 233.23 331.24 283.16 345.51
  Q 297.40 349.58 311.59 349.66
  Q 328.45 349.76 340.73 346.70
  Q 379.00 337.18 397.69 302.77
  A 0.41 0.40 31.8 0 0 397.56 302.24
  L 389.74 296.83
  Q 389.25 296.49 388.93 297.00
  C 386.78 300.43 384.88 303.94 382.43 307.30
  C 371.93 321.76 356.94 332.52 339.39 336.56
  Q 314.95 342.19 290.12 336.85
  C 285.17 335.79 280.38 333.84 275.70 332.08
  Q 269.41 329.72 261.28 323.71
  C 233.21 302.97 224.74 267.53 224.65 233.87
  Q 224.65 233.36 225.16 233.30
  Q 227.59 233.03 230.03 233.36
  Q 231.50 233.56 231.50 232.08
  L 231.50 225.66
  Q 231.50 224.19 230.04 224.40
  Q 227.53 224.77 225.35 224.48
  Q 224.85 224.42 224.87 223.92
  C 226.14 191.94 237.65 158.63 262.53 137.45
  Q 284.01 119.15 312.14 117.10
  C 322.17 116.36 333.56 117.20 343.21 119.49
  C 363.64 124.36 378.66 137.74 389.42 155.94
  Q 389.79 156.57 390.34 156.10
  L 397.75 149.95
  Q 398.19 149.58 397.91 149.08
  Q 389.84 134.47 377.14 124.61
  Q 367.44 117.08 356.09 112.86
  Q 339.26 106.61 320.02 106.59
  Q 278.43 106.55 249.33 135.08
  C 225.81 158.12 215.44 191.22 214.11 223.89
  Q 214.08 224.50 213.48 224.50
  L 156.68 224.50
  Q 156.34 224.50 156.34 224.16
  L 156.34 117.71
  Q 156.34 117.50 156.54 117.50
  L 197.76 117.50
  A 0.26 0.25 -90.0 0 0 198.01 117.24
  L 198.01 109.01
  A 0.26 0.25 90.0 0 0 197.76 108.75
  L 146.51 108.75
  A 0.24 0.24 0.0 0 0 146.27 108.99
  L 146.27 345.89
  Q 146.27 346.50 146.89 346.50
  L 155.80 346.50
  Q 156.34 346.50 156.34 345.95
  L 156.34 233.60
  A 0.35 0.34 -90.0 0 1 156.68 233.25
  L 213.25 233.25
  Q 214.00 233.25 214.00 234.01
  Z
  M 264.47 109.01
  A 0.26 0.26 0.0 0 0 264.21 108.75
  L 229.99 108.75
  A 0.26 0.26 0.0 0 0 229.73 109.01
  L 229.73 117.25
  A 0.26 0.26 0.0 0 0 229.99 117.51
  L 264.21 117.51
  A 0.26 0.26 0.0 0 0 264.47 117.25
  L 264.47 109.01
  Z"
/>
<path fill="#f8f8f8" d="
  M 213.25 233.25
  L 156.68 233.25
  A 0.35 0.34 90.0 0 0 156.34 233.60
  L 156.34 345.95
  Q 156.34 346.50 155.80 346.50
  L 146.89 346.50
  Q 146.27 346.50 146.27 345.89
  L 146.27 108.99
  A 0.24 0.24 0.0 0 1 146.51 108.75
  L 197.76 108.75
  A 0.26 0.25 90.0 0 1 198.01 109.01
  L 198.01 117.24
  A 0.26 0.25 90.0 0 1 197.76 117.50
  L 156.54 117.50
  Q 156.34 117.50 156.34 117.71
  L 156.34 224.16
  Q 156.34 224.50 156.68 224.50
  L 213.48 224.50
  Q 214.08 224.50 214.11 223.89
  C 215.44 191.22 225.81 158.12 249.33 135.08
  Q 278.43 106.55 320.02 106.59
  Q 339.26 106.61 356.09 112.86
  Q 367.44 117.08 377.14 124.61
  Q 389.84 134.47 397.91 149.08
  Q 398.19 149.58 397.75 149.95
  L 390.34 156.10
  Q 389.79 156.57 389.42 155.94
  C 378.66 137.74 363.64 124.36 343.21 119.49
  C 333.56 117.20 322.17 116.36 312.14 117.10
  Q 284.01 119.15 262.53 137.45
  C 237.65 158.63 226.14 191.94 224.87 223.92
  Q 224.85 224.42 225.35 224.48
  Q 227.53 224.77 230.04 224.40
  Q 231.50 224.19 231.50 225.66
  L 231.50 232.08
  Q 231.50 233.56 230.03 233.36
  Q 227.59 233.03 225.16 233.30
  Q 224.65 233.36 224.65 233.87
  C 224.74 267.53 233.21 302.97 261.28 323.71
  Q 269.41 329.72 275.70 332.08
  C 280.38 333.84 285.17 335.79 290.12 336.85
  Q 314.95 342.19 339.39 336.56
  C 356.94 332.52 371.93 321.76 382.43 307.30
  C 384.88 303.94 386.78 300.43 388.93 297.00
  Q 389.25 296.49 389.74 296.83
  L 397.56 302.24
  A 0.41 0.40 31.8 0 1 397.69 302.77
  Q 379.00 337.18 340.73 346.70
  Q 328.45 349.76 311.59 349.66
  Q 297.40 349.58 283.16 345.51
  C 233.23 331.24 213.60 281.91 214.00 234.01
  Q 214.00 233.25 213.25 233.25
  Z"
/>
<rect fill="#f8f8f8" x="229.73" y="108.75" width="34.74" height="8.76" rx="0.26"/>
</svg>
