<?xml version="1.0" encoding="UTF-8" standalone="no"?>
<!DOCTYPE svg PUBLIC "-//W3C//DTD SVG 1.1//EN" "http://www.w3.org/Graphics/SVG/1.1/DTD/svg11.dtd">
<svg xmlns="http://www.w3.org/2000/svg" version="1.1" viewBox="0.00 0.00 341.00 341.00">
<path fill="#f05138" d="
  M 235.25 263.56
  L 235.25 41.28
  Q 235.25 40.74 235.74 40.95
  L 299.97 67.67
  A 0.86 0.85 11.4 0 1 300.50 68.46
  L 300.50 273.53
  Q 300.50 274.10 299.97 274.32
  L 236.13 300.88
  A 1.83 1.81 42.9 0 1 234.85 300.92
  L 41.94 235.97
  Q 39.04 234.99 42.07 235.44
  L 234.68 264.06
  Q 235.25 264.14 235.25 263.56
  Z"
/>
<path fill="#007acc" d="
  M 128.09 147.29
  Q 129.34 148.10 128.34 146.99
  Q 106.19 122.56 88.36 96.40
  Q 88.25 96.25 88.33 96.08
  Q 88.45 95.86 88.62 96.04
  Q 112.00 119.43 138.17 139.05
  Q 148.71 146.95 159.42 153.64
  Q 160.00 154.01 160.25 153.36
  C 169.02 130.34 160.88 104.10 146.98 84.96
  Q 146.10 83.76 147.37 84.53
  C 177.44 102.84 200.54 139.40 191.15 175.78
  Q 191.03 176.27 191.33 176.67
  C 198.57 186.06 203.10 196.97 203.14 208.84
  Q 203.15 211.90 202.17 214.68
  A 0.81 0.81 0.0 0 1 200.68 214.78
  C 193.73 200.97 179.98 199.79 167.44 206.72
  C 150.27 216.22 130.19 216.90 111.49 210.97
  Q 80.30 201.08 60.08 173.65
  Q 58.42 171.40 56.90 168.91
  Q 56.29 167.91 57.25 168.59
  C 80.90 185.49 112.83 193.88 139.12 178.73
  A 0.30 0.30 0.0 0 0 139.16 178.24
  Q 116.75 160.32 97.32 137.51
  Q 86.10 124.34 75.57 111.02
  Q 72.90 107.63 70.98 104.27
  Q 70.27 103.02 71.34 103.97
  Q 98.08 127.73 128.09 147.29
  Z"
/>
</svg>
