<?xml version="1.0" encoding="UTF-8" standalone="no"?>
<!DOCTYPE svg PUBLIC "-//W3C//DTD SVG 1.1//EN" "http://www.w3.org/Graphics/SVG/1.1/DTD/svg11.dtd">
<svg xmlns="http://www.w3.org/2000/svg" version="1.1" viewBox="0.00 0.00 313.00 370.00">
<g stroke-width="2.00" fill="none" stroke-linecap="butt">
<path stroke="#707274" vector-effect="non-scaling-stroke" d="
  M 307.04 108.49
  Q 306.85 108.96 306.78 108.86
  Q 305.70 107.30 304.30 106.03
  Q 303.12 104.97 302.02 103.87
  Q 285.55 87.48 269.92 71.92
  Q 269.24 71.24 268.56 70.57
  Q 239.15 41.64 208.04 10.27
  Q 206.95 9.17 205.39 9.17
  Q 130.09 9.07 54.96 9.17
  Q 49.97 9.18 44.36 11.09
  Q 35.95 13.95 31.21 17.49
  Q 27.18 20.50 22.36 25.74
  Q 19.87 28.44 17.74 32.32
  Q 15.77 35.88 13.87 39.57"
/>
<path stroke="#707274" vector-effect="non-scaling-stroke" d="
  M 22.79 162.21
  Q 22.70 242.48 22.59 322.75
  Q 22.57 333.03 27.70 341.77
  Q 34.69 353.68 48.37 358.00
  Q 52.72 359.38 59.75 359.37
  Q 171.29 359.20 260.47 359.34
  C 276.09 359.36 289.64 348.08 293.94 333.28
  Q 295.31 328.54 295.30 317.14
  Q 295.22 243.26 295.18 169.54
  Q 295.18 160.25 295.00 149.50
  Q 294.71 131.67 294.87 113.80"
/>
<path stroke="#7f7f7f" vector-effect="non-scaling-stroke" d="
  M 294.87 113.80
  Q 291.32 109.69 287.44 105.81
  Q 244.48 62.94 201.49 20.60"
/>
<path stroke="#707274" vector-effect="non-scaling-stroke" d="
  M 201.49 20.60
  L 156.45 20.73"
/>
<path stroke="#7f7f7f" vector-effect="non-scaling-stroke" d="
  M 156.45 20.73
  Q 111.73 20.61 67.00 20.66
  Q 55.13 20.68 53.02 20.97
  C 39.24 22.89 28.09 33.26 24.11 46.48
  Q 22.78 50.91 22.76 63.70
  Q 22.72 112.96 22.79 162.21"
/>
<path stroke="#eff1f2" vector-effect="non-scaling-stroke" d="
  M 156.45 20.73
  Q 156.14 22.33 157.47 23.15
  Q 157.94 23.44 157.91 23.99
  Q 157.86 24.80 158.33 25.47
  Q 159.72 27.45 161.55 29.17
  A 1.65 1.64 -66.8 0 1 162.07 30.48
  Q 162.01 31.31 162.64 31.95
  Q 163.08 32.39 162.54 32.71
  L 160.95 33.65
  Q 160.62 33.85 160.23 33.85
  Q 110.94 34.08 61.66 34.00
  C 50.11 33.98 39.68 41.04 36.00 51.84
  C 34.62 55.91 34.48 60.52 34.42 64.75
  Q 34.03 92.98 34.27 123.41
  Q 34.30 127.99 34.07 132.57
  Q 33.82 137.74 34.57 141.73
  Q 34.81 143.03 35.35 144.36
  Q 35.98 145.90 36.90 146.52
  Q 38.93 147.91 41.11 146.13
  Q 41.53 145.79 42.03 145.97
  C 43.31 146.42 44.52 146.64 45.88 146.64
  Q 61.33 146.67 77.50 146.60
  Q 78.45 146.59 78.48 145.65
  Q 78.50 144.90 79.01 144.24
  Q 79.39 143.74 79.94 144.06
  Q 80.30 144.28 80.55 144.61
  C 81.28 145.60 82.79 145.88 83.84 145.42
  Q 84.25 145.25 84.62 145.51
  Q 85.14 145.87 85.73 145.89
  Q 86.15 145.91 86.01 145.51
  L 85.81 144.95
  A 0.46 0.44 66.2 0 1 86.01 144.40
  L 87.29 143.71"
/>
<path stroke="#fcaa95" vector-effect="non-scaling-stroke" d="
  M 87.29 143.71
  Q 96.82 155.75 106.54 167.69
  C 126.27 191.95 147.68 214.25 171.83 232.95
  A 0.58 0.58 0.0 0 1 171.76 233.92
  Q 147.50 247.52 119.02 243.31
  Q 89.00 238.88 65.09 220.96
  Q 64.08 220.20 64.77 221.27
  C 84.67 251.73 116.94 274.26 153.33 279.28
  Q 182.17 283.27 206.77 270.32
  Q 217.86 264.48 230.17 265.34
  C 240.18 266.03 247.02 272.63 251.55 281.25
  A 0.67 0.67 0.0 0 0 252.75 281.22
  Q 254.26 278.06 254.15 274.23
  C 254.07 271.19 254.15 268.20 253.67 265.17
  Q 250.71 246.48 238.77 231.58
  A 1.86 1.85 33.5 0 1 238.43 229.93
  C 239.73 225.12 240.85 220.22 241.20 215.28
  Q 242.70 194.18 234.94 174.16"
/>
<path stroke="#eff1f2" vector-effect="non-scaling-stroke" d="
  M 234.94 174.16
  Q 234.63 173.02 235.70 171.97
  Q 235.81 171.86 235.98 171.87
  Q 236.15 171.88 236.15 171.73
  Q 236.13 170.79 236.68 171.54
  Q 236.97 171.95 237.45 171.69
  Q 237.86 171.48 237.69 171.91
  Q 237.67 171.95 237.68 172.00
  Q 237.70 172.30 237.98 172.42
  Q 239.96 173.27 240.87 174.13
  Q 243.33 176.49 245.65 178.60
  Q 247.07 179.90 248.17 178.69
  Q 248.46 178.38 248.81 178.61
  L 249.95 179.35
  Q 250.36 179.62 250.84 179.69
  Q 251.49 179.79 252.04 180.27
  Q 252.44 180.62 252.96 180.69
  Q 257.38 181.30 260.29 184.52
  Q 260.60 184.86 261.06 184.94
  Q 261.83 185.06 262.23 185.79
  A 0.89 0.89 0.0 0 0 262.86 186.26
  C 263.52 186.40 264.25 186.41 264.85 186.74
  Q 269.33 189.24 273.98 191.22
  Q 274.93 191.63 275.72 192.26
  Q 276.45 192.83 277.28 193.15
  Q 277.73 193.32 278.05 193.68
  L 278.79 194.50
  Q 279.14 194.89 279.67 194.91
  Q 280.47 194.95 280.95 195.63
  Q 281.31 196.15 281.84 195.80
  Q 283.30 194.86 283.55 198.28
  A 0.76 0.70 42.6 0 1 283.56 198.40
  C 283.63 215.61 283.16 233.90 283.33 251.95
  Q 283.63 284.80 283.46 318.20
  C 283.40 330.75 276.72 340.65 264.90 344.67
  Q 260.87 346.05 254.12 346.04
  Q 157.69 345.93 62.25 346.02
  Q 54.56 346.02 48.40 342.61
  Q 34.40 334.85 34.47 317.73
  Q 34.56 295.04 34.30 271.92
  C 34.15 258.59 34.95 244.10 34.52 230.97
  Q 34.09 218.03 34.21 204.97
  C 34.22 203.99 33.75 203.02 33.95 202.09
  C 34.45 199.80 34.13 196.68 34.13 194.38
  C 34.13 191.34 33.17 188.47 33.44 185.41
  Q 33.61 183.52 33.88 181.68
  Q 34.18 179.59 33.01 177.72
  Q 31.65 175.54 30.94 173.30
  Q 30.68 172.48 29.83 172.60
  Q 29.15 172.70 29.04 171.98
  A 1.03 1.03 0.0 0 0 28.26 171.14
  L 23.94 170.11
  Q 23.43 169.99 23.38 169.46
  L 22.79 162.21"
/>
<path stroke="#eff1f2" vector-effect="non-scaling-stroke" d="
  M 201.49 20.60
  Q 201.09 26.19 201.17 31.53
  C 201.39 45.66 201.16 59.84 201.05 73.90
  Q 200.99 81.99 202.45 87.03
  C 205.25 96.72 211.34 104.60 220.41 109.36
  Q 228.70 113.71 236.01 113.80
  Q 260.40 114.12 288.29 113.56
  C 289.74 113.54 291.44 113.25 292.75 113.89
  Q 293.85 114.43 294.87 113.80"
/>
<path stroke="#ed9e8a" vector-effect="non-scaling-stroke" d="
  M 234.94 174.16
  Q 218.70 134.40 182.28 112.00
  Q 181.62 111.60 182.05 112.24
  C 193.59 129.62 201.74 148.05 203.11 168.31
  Q 204.33 186.22 198.50 201.65
  A 0.63 0.63 0.0 0 1 197.58 201.96
  Q 189.16 196.81 181.30 191.23
  Q 141.42 162.92 106.35 127.95
  Q 106.25 127.85 106.14 127.94
  L 106.13 127.95
  Q 106.05 128.02 106.12 128.10
  Q 112.40 136.86 118.71 145.52
  Q 136.85 170.43 158.15 193.42
  Q 159.93 195.34 157.73 193.93
  C 133.12 178.16 109.71 160.00 87.46 141.08
  Q 85.62 139.51 83.87 137.67
  Q 82.05 135.75 83.46 137.99
  Q 84.94 140.35 87.29 143.71"
/>
<path stroke="#eff1f2" vector-effect="non-scaling-stroke" d="
  M 211.35 45.30
  C 211.08 56.91 211.17 68.16 211.42 78.62
  Q 211.72 91.14 221.41 98.87
  Q 228.64 104.62 237.07 104.69
  Q 253.57 104.83 268.89 104.72
  Q 270.33 104.71 271.75 104.96
  Q 272.02 105.01 272.29 104.90
  Q 272.49 104.81 272.59 104.63
  A 0.35 0.34 35.6 0 0 272.52 104.22
  L 212.78 44.73
  Q 211.40 43.35 211.35 45.30"
/>
</g>
<path fill="#e0e4e7" d="
  M 307.04 108.49
  Q 306.85 108.96 306.78 108.86
  Q 305.70 107.30 304.30 106.03
  Q 303.12 104.97 302.02 103.87
  Q 285.55 87.48 269.92 71.92
  Q 269.24 71.24 268.56 70.57
  Q 239.15 41.64 208.04 10.27
  Q 206.95 9.17 205.39 9.17
  Q 130.09 9.07 54.96 9.17
  Q 49.97 9.18 44.36 11.09
  Q 35.95 13.95 31.21 17.49
  Q 27.18 20.50 22.36 25.74
  Q 19.87 28.44 17.74 32.32
  Q 15.77 35.88 13.87 39.57
  Q 14.42 37.61 15.18 36.04
  Q 23.86 18.13 41.93 10.97
  Q 45.09 9.72 48.25 9.23
  C 51.14 8.79 54.02 8.04 56.95 8.04
  Q 105.33 8.06 155.50 7.91
  C 171.21 7.87 188.47 8.24 203.02 7.79
  C 205.94 7.69 207.61 8.31 209.73 10.45
  Q 239.05 39.98 268.36 69.37
  Q 268.57 69.58 268.82 69.71
  Q 269.22 69.91 269.41 70.10
  Q 286.68 87.48 306.01 107.23
  Q 306.59 107.82 307.04 108.49
  Z"
/>
<path fill="#000000" d="
  M 307.04 108.49
  Q 307.36 109.04 307.37 109.75
  C 307.59 126.35 307.22 143.86 307.22 159.50
  Q 307.23 291.77 307.10 326.25
  Q 307.08 331.50 304.98 337.73
  Q 296.47 363.06 270.36 370.00
  L 47.20 370.00
  C 44.66 368.82 41.94 368.45 39.41 367.32
  C 22.65 359.79 10.89 343.47 10.91 324.37
  Q 11.03 188.68 10.95 53.00
  Q 10.95 46.74 13.87 39.57
  Q 15.77 35.88 17.74 32.32
  Q 19.87 28.44 22.36 25.74
  Q 27.18 20.50 31.21 17.49
  Q 35.95 13.95 44.36 11.09
  Q 49.97 9.18 54.96 9.17
  Q 130.09 9.07 205.39 9.17
  Q 206.95 9.17 208.04 10.27
  Q 239.15 41.64 268.56 70.57
  Q 269.24 71.24 269.92 71.92
  Q 285.55 87.48 302.02 103.87
  Q 303.12 104.97 304.30 106.03
  Q 305.70 107.30 306.78 108.86
  Q 306.85 108.96 307.04 108.49
  Z
  M 22.79 162.21
  Q 22.70 242.48 22.59 322.75
  Q 22.57 333.03 27.70 341.77
  Q 34.69 353.68 48.37 358.00
  Q 52.72 359.38 59.75 359.37
  Q 171.29 359.20 260.47 359.34
  C 276.09 359.36 289.64 348.08 293.94 333.28
  Q 295.31 328.54 295.30 317.14
  Q 295.22 243.26 295.18 169.54
  Q 295.18 160.25 295.00 149.50
  Q 294.71 131.67 294.87 113.80
  Q 291.32 109.69 287.44 105.81
  Q 244.48 62.94 201.49 20.60
  L 156.45 20.73
  Q 111.73 20.61 67.00 20.66
  Q 55.13 20.68 53.02 20.97
  C 39.24 22.89 28.09 33.26 24.11 46.48
  Q 22.78 50.91 22.76 63.70
  Q 22.72 112.96 22.79 162.21
  Z"
/>
<path fill="#fdfdfd" d="
  M 156.45 20.73
  Q 156.14 22.33 157.47 23.15
  Q 157.94 23.44 157.91 23.99
  Q 157.86 24.80 158.33 25.47
  Q 159.72 27.45 161.55 29.17
  A 1.65 1.64 -66.8 0 1 162.07 30.48
  Q 162.01 31.31 162.64 31.95
  Q 163.08 32.39 162.54 32.71
  L 160.95 33.65
  Q 160.62 33.85 160.23 33.85
  Q 110.94 34.08 61.66 34.00
  C 50.11 33.98 39.68 41.04 36.00 51.84
  C 34.62 55.91 34.48 60.52 34.42 64.75
  Q 34.03 92.98 34.27 123.41
  Q 34.30 127.99 34.07 132.57
  Q 33.82 137.74 34.57 141.73
  Q 34.81 143.03 35.35 144.36
  Q 35.98 145.90 36.90 146.52
  Q 38.93 147.91 41.11 146.13
  Q 41.53 145.79 42.03 145.97
  C 43.31 146.42 44.52 146.64 45.88 146.64
  Q 61.33 146.67 77.50 146.60
  Q 78.45 146.59 78.48 145.65
  Q 78.50 144.90 79.01 144.24
  Q 79.39 143.74 79.94 144.06
  Q 80.30 144.28 80.55 144.61
  C 81.28 145.60 82.79 145.88 83.84 145.42
  Q 84.25 145.25 84.62 145.51
  Q 85.14 145.87 85.73 145.89
  Q 86.15 145.91 86.01 145.51
  L 85.81 144.95
  A 0.46 0.44 66.2 0 1 86.01 144.40
  L 87.29 143.71
  Q 96.82 155.75 106.54 167.69
  C 126.27 191.95 147.68 214.25 171.83 232.95
  A 0.58 0.58 0.0 0 1 171.76 233.92
  Q 147.50 247.52 119.02 243.31
  Q 89.00 238.88 65.09 220.96
  Q 64.08 220.20 64.77 221.27
  C 84.67 251.73 116.94 274.26 153.33 279.28
  Q 182.17 283.27 206.77 270.32
  Q 217.86 264.48 230.17 265.34
  C 240.18 266.03 247.02 272.63 251.55 281.25
  A 0.67 0.67 0.0 0 0 252.75 281.22
  Q 254.26 278.06 254.15 274.23
  C 254.07 271.19 254.15 268.20 253.67 265.17
  Q 250.71 246.48 238.77 231.58
  A 1.86 1.85 33.5 0 1 238.43 229.93
  C 239.73 225.12 240.85 220.22 241.20 215.28
  Q 242.70 194.18 234.94 174.16
  Q 234.63 173.02 235.70 171.97
  Q 235.81 171.86 235.98 171.87
  Q 236.15 171.88 236.15 171.73
  Q 236.13 170.79 236.68 171.54
  Q 236.97 171.95 237.45 171.69
  Q 237.86 171.48 237.69 171.91
  Q 237.67 171.95 237.68 172.00
  Q 237.70 172.30 237.98 172.42
  Q 239.96 173.27 240.87 174.13
  Q 243.33 176.49 245.65 178.60
  Q 247.07 179.90 248.17 178.69
  Q 248.46 178.38 248.81 178.61
  L 249.95 179.35
  Q 250.36 179.62 250.84 179.69
  Q 251.49 179.79 252.04 180.27
  Q 252.44 180.62 252.96 180.69
  Q 257.38 181.30 260.29 184.52
  Q 260.60 184.86 261.06 184.94
  Q 261.83 185.06 262.23 185.79
  A 0.89 0.89 0.0 0 0 262.86 186.26
  C 263.52 186.40 264.25 186.41 264.85 186.74
  Q 269.33 189.24 273.98 191.22
  Q 274.93 191.63 275.72 192.26
  Q 276.45 192.83 277.28 193.15
  Q 277.73 193.32 278.05 193.68
  L 278.79 194.50
  Q 279.14 194.89 279.67 194.91
  Q 280.47 194.95 280.95 195.63
  Q 281.31 196.15 281.84 195.80
  Q 283.30 194.86 283.55 198.28
  A 0.76 0.70 42.6 0 1 283.56 198.40
  C 283.63 215.61 283.16 233.90 283.33 251.95
  Q 283.63 284.80 283.46 318.20
  C 283.40 330.75 276.72 340.65 264.90 344.67
  Q 260.87 346.05 254.12 346.04
  Q 157.69 345.93 62.25 346.02
  Q 54.56 346.02 48.40 342.61
  Q 34.40 334.85 34.47 317.73
  Q 34.56 295.04 34.30 271.92
  C 34.15 258.59 34.95 244.10 34.52 230.97
  Q 34.09 218.03 34.21 204.97
  C 34.22 203.99 33.75 203.02 33.95 202.09
  C 34.45 199.80 34.13 196.68 34.13 194.38
  C 34.13 191.34 33.17 188.47 33.44 185.41
  Q 33.61 183.52 33.88 181.68
  Q 34.18 179.59 33.01 177.72
  Q 31.65 175.54 30.94 173.30
  Q 30.68 172.48 29.83 172.60
  Q 29.15 172.70 29.04 171.98
  A 1.03 1.03 0.0 0 0 28.26 171.14
  L 23.94 170.11
  Q 23.43 169.99 23.38 169.46
  L 22.79 162.21
  Q 22.72 112.96 22.76 63.70
  Q 22.78 50.91 24.11 46.48
  C 28.09 33.26 39.24 22.89 53.02 20.97
  Q 55.13 20.68 67.00 20.66
  Q 111.73 20.61 156.45 20.73
  Z"
/>
<path fill="#e0e4e7" d="
  M 156.45 20.73
  L 201.49 20.60
  Q 201.09 26.19 201.17 31.53
  C 201.39 45.66 201.16 59.84 201.05 73.90
  Q 200.99 81.99 202.45 87.03
  C 205.25 96.72 211.34 104.60 220.41 109.36
  Q 228.70 113.71 236.01 113.80
  Q 260.40 114.12 288.29 113.56
  C 289.74 113.54 291.44 113.25 292.75 113.89
  Q 293.85 114.43 294.87 113.80
  Q 294.71 131.67 295.00 149.50
  Q 295.18 160.25 295.18 169.54
  Q 295.22 243.26 295.30 317.14
  Q 295.31 328.54 293.94 333.28
  C 289.64 348.08 276.09 359.36 260.47 359.34
  Q 171.29 359.20 59.75 359.37
  Q 52.72 359.38 48.37 358.00
  Q 34.69 353.68 27.70 341.77
  Q 22.57 333.03 22.59 322.75
  Q 22.70 242.48 22.79 162.21
  L 23.38 169.46
  Q 23.43 169.99 23.94 170.11
  L 28.26 171.14
  A 1.03 1.03 0.0 0 1 29.04 171.98
  Q 29.15 172.70 29.83 172.60
  Q 30.68 172.48 30.94 173.30
  Q 31.65 175.54 33.01 177.72
  Q 34.18 179.59 33.88 181.68
  Q 33.61 183.52 33.44 185.41
  C 33.17 188.47 34.13 191.34 34.13 194.38
  C 34.13 196.68 34.45 199.80 33.95 202.09
  C 33.75 203.02 34.22 203.99 34.21 204.97
  Q 34.09 218.03 34.52 230.97
  C 34.95 244.10 34.15 258.59 34.30 271.92
  Q 34.56 295.04 34.47 317.73
  Q 34.40 334.85 48.40 342.61
  Q 54.56 346.02 62.25 346.02
  Q 157.69 345.93 254.12 346.04
  Q 260.87 346.05 264.90 344.67
  C 276.72 340.65 283.40 330.75 283.46 318.20
  Q 283.63 284.80 283.33 251.95
  C 283.16 233.90 283.63 215.61 283.56 198.40
  A 0.76 0.70 42.6 0 0 283.55 198.28
  Q 283.30 194.86 281.84 195.80
  Q 281.31 196.15 280.95 195.63
  Q 280.47 194.95 279.67 194.91
  Q 279.14 194.89 278.79 194.50
  L 278.05 193.68
  Q 277.73 193.32 277.28 193.15
  Q 276.45 192.83 275.72 192.26
  Q 274.93 191.63 273.98 191.22
  Q 269.33 189.24 264.85 186.74
  C 264.25 186.41 263.52 186.40 262.86 186.26
  A 0.89 0.89 0.0 0 1 262.23 185.79
  Q 261.83 185.06 261.06 184.94
  Q 260.60 184.86 260.29 184.52
  Q 257.38 181.30 252.96 180.69
  Q 252.44 180.62 252.04 180.27
  Q 251.49 179.79 250.84 179.69
  Q 250.36 179.62 249.95 179.35
  L 248.81 178.61
  Q 248.46 178.38 248.17 178.69
  Q 247.07 179.90 245.65 178.60
  Q 243.33 176.49 240.87 174.13
  Q 239.96 173.27 237.98 172.42
  Q 237.70 172.30 237.68 172.00
  Q 237.67 171.95 237.69 171.91
  Q 237.86 171.48 237.45 171.69
  Q 236.97 171.95 236.68 171.54
  Q 236.13 170.79 236.15 171.73
  Q 236.15 171.88 235.98 171.87
  Q 235.81 171.86 235.70 171.97
  Q 234.63 173.02 234.94 174.16
  Q 218.70 134.40 182.28 112.00
  Q 181.62 111.60 182.05 112.24
  C 193.59 129.62 201.74 148.05 203.11 168.31
  Q 204.33 186.22 198.50 201.65
  A 0.63 0.63 0.0 0 1 197.58 201.96
  Q 189.16 196.81 181.30 191.23
  Q 141.42 162.92 106.35 127.95
  Q 106.25 127.85 106.14 127.94
  L 106.13 127.95
  Q 106.05 128.02 106.12 128.10
  Q 112.40 136.86 118.71 145.52
  Q 136.85 170.43 158.15 193.42
  Q 159.93 195.34 157.73 193.93
  C 133.12 178.16 109.71 160.00 87.46 141.08
  Q 85.62 139.51 83.87 137.67
  Q 82.05 135.75 83.46 137.99
  Q 84.94 140.35 87.29 143.71
  L 86.01 144.40
  A 0.46 0.44 66.2 0 0 85.81 144.95
  L 86.01 145.51
  Q 86.15 145.91 85.73 145.89
  Q 85.14 145.87 84.62 145.51
  Q 84.25 145.25 83.84 145.42
  C 82.79 145.88 81.28 145.60 80.55 144.61
  Q 80.30 144.28 79.94 144.06
  Q 79.39 143.74 79.01 144.24
  Q 78.50 144.90 78.48 145.65
  Q 78.45 146.59 77.50 146.60
  Q 61.33 146.67 45.88 146.64
  C 44.52 146.64 43.31 146.42 42.03 145.97
  Q 41.53 145.79 41.11 146.13
  Q 38.93 147.91 36.90 146.52
  Q 35.98 145.90 35.35 144.36
  Q 34.81 143.03 34.57 141.73
  Q 33.82 137.74 34.07 132.57
  Q 34.30 127.99 34.27 123.41
  Q 34.03 92.98 34.42 64.75
  C 34.48 60.52 34.62 55.91 36.00 51.84
  C 39.68 41.04 50.11 33.98 61.66 34.00
  Q 110.94 34.08 160.23 33.85
  Q 160.62 33.85 160.95 33.65
  L 162.54 32.71
  Q 163.08 32.39 162.64 31.95
  Q 162.01 31.31 162.07 30.48
  A 1.65 1.64 -66.8 0 0 161.55 29.17
  Q 159.72 27.45 158.33 25.47
  Q 157.86 24.80 157.91 23.99
  Q 157.94 23.44 157.47 23.15
  Q 156.14 22.33 156.45 20.73
  Z"
/>
<path fill="#fdfdfd" d="
  M 201.49 20.60
  Q 244.48 62.94 287.44 105.81
  Q 291.32 109.69 294.87 113.80
  Q 293.85 114.43 292.75 113.89
  C 291.44 113.25 289.74 113.54 288.29 113.56
  Q 260.40 114.12 236.01 113.80
  Q 228.70 113.71 220.41 109.36
  C 211.34 104.60 205.25 96.72 202.45 87.03
  Q 200.99 81.99 201.05 73.90
  C 201.16 59.84 201.39 45.66 201.17 31.53
  Q 201.09 26.19 201.49 20.60
  Z
  M 211.35 45.30
  C 211.08 56.91 211.17 68.16 211.42 78.62
  Q 211.72 91.14 221.41 98.87
  Q 228.64 104.62 237.07 104.69
  Q 253.57 104.83 268.89 104.72
  Q 270.33 104.71 271.75 104.96
  Q 272.02 105.01 272.29 104.90
  Q 272.49 104.81 272.59 104.63
  A 0.35 0.34 35.6 0 0 272.52 104.22
  L 212.78 44.73
  Q 211.40 43.35 211.35 45.30
  Z"
/>
<path fill="#e0e4e7" d="
  M 211.42 78.62
  C 211.17 68.16 211.08 56.91 211.35 45.30
  Q 211.40 43.35 212.78 44.73
  L 272.52 104.22
  A 0.35 0.34 35.6 0 1 272.59 104.63
  Q 272.49 104.81 272.29 104.90
  Q 272.02 105.01 271.75 104.96
  Q 270.33 104.71 268.89 104.72
  Q 253.57 104.83 237.07 104.69
  Q 228.64 104.62 221.41 98.87
  Q 211.72 91.14 211.42 78.62
  Z"
/>
<path fill="#fa572c" d="
  M 234.94 174.16
  Q 242.70 194.18 241.20 215.28
  C 240.85 220.22 239.73 225.12 238.43 229.93
  A 1.86 1.85 33.5 0 0 238.77 231.58
  Q 250.71 246.48 253.67 265.17
  C 254.15 268.20 254.07 271.19 254.15 274.23
  Q 254.26 278.06 252.75 281.22
  A 0.67 0.67 0.0 0 1 251.55 281.25
  C 247.02 272.63 240.18 266.03 230.17 265.34
  Q 217.86 264.48 206.77 270.32
  Q 182.17 283.27 153.33 279.28
  C 116.94 274.26 84.67 251.73 64.77 221.27
  Q 64.08 220.20 65.09 220.96
  Q 89.00 238.88 119.02 243.31
  Q 147.50 247.52 171.76 233.92
  A 0.58 0.58 0.0 0 0 171.83 232.95
  C 147.68 214.25 126.27 191.95 106.54 167.69
  Q 96.82 155.75 87.29 143.71
  Q 84.94 140.35 83.46 137.99
  Q 82.05 135.75 83.87 137.67
  Q 85.62 139.51 87.46 141.08
  C 109.71 160.00 133.12 178.16 157.73 193.93
  Q 159.93 195.34 158.15 193.42
  Q 136.85 170.43 118.71 145.52
  Q 112.40 136.86 106.12 128.10
  Q 106.05 128.02 106.13 127.95
  L 106.14 127.94
  Q 106.25 127.85 106.35 127.95
  Q 141.42 162.92 181.30 191.23
  Q 189.16 196.81 197.58 201.96
  A 0.63 0.63 0.0 0 0 198.50 201.65
  Q 204.33 186.22 203.11 168.31
  C 201.74 148.05 193.59 129.62 182.05 112.24
  Q 181.62 111.60 182.28 112.00
  Q 218.70 134.40 234.94 174.16
  Z"
/>
</svg>
